<svg version="1.1" id="location-icon" xmlns="http://www.w3.org/2000/svg" xmlns:xlink="http://www.w3.org/1999/xlink" x="0px" y="0px"
	 viewBox="0 0 200 200" style="enable-background:new 0 0 200 200;" xml:space="preserve">
<style type="text/css">
	.st0{fill:#FF4060;}
	.st1{fill:#FFFFFF;}
</style>
<defs>
	<filter id="dropshadow" height="130%">
		<feGaussianBlur in="SourceAlpha" stdDeviation="5"/>
		<feOffset dx="0" dy="8" result="offsetblur"/>
		<feComponentTransfer>
			<feFuncA type="linear" slope="0.3"/>
		</feComponentTransfer>
		<feMerge>
			<feMergeNode/>
			<feMergeNode in="SourceGraphic"/>
		</feMerge>
	</filter>
</defs>
<g filter="url(#dropshadow)">
	<rect x="25" y="25" rx="35" ry="35" width="150" height="150" class="st0"/>
</g>
<g>
	<path class="st1" d="M100,55.1c-19.1,0-34.6,15.5-34.6,34.6c0,13.5,14.6,28.7,28.5,41.9c3.1,3,9.1,3,12.2,0
		c13.9-13.2,28.5-28.3,28.5-41.9C134.6,70.6,119.1,55.1,100,55.1z M100,105.7c-8.9,0-16.1-7.2-16.1-16.1s7.2-16.1,16.1-16.1
		s16.1,7.2,16.1,16.1S108.9,105.7,100,105.7z"/>
	<path class="st1" d="M100,64.3c-13.9,0-25.2,11.3-25.2,25.2c0,10.6,12.3,22.8,22.6,32.7c1.3,1.2,3.9,1.2,5.2,0
		c10.3-9.9,22.6-22.1,22.6-32.7C125.2,75.6,113.9,64.3,100,64.3z M100,102.7c-7.3,0-13.1-5.9-13.1-13.1c0-7.3,5.9-13.1,13.1-13.1
		c7.3,0,13.1,5.9,13.1,13.1C113.1,96.8,107.3,102.7,100,102.7z"/>
</g>
</svg>
